<svg width="38" height="38" viewBox="0 0 38 38" fill="none" xmlns="http://www.w3.org/2000/svg">
<path d="M35.625 17.5464C35.3775 17.5449 35.1367 17.4681 34.9363 17.3267L19 6.24986L3.06376 17.3267C2.80809 17.4742 2.50495 17.5229 2.21417 17.4634C1.92339 17.4038 1.66611 17.2403 1.49312 17.005C1.32013 16.7698 1.24399 16.48 1.27975 16.1927C1.31551 15.9055 1.46055 15.6418 1.68626 15.4536L18.3113 3.89111C18.5124 3.75168 18.7531 3.67676 19 3.67676C19.2469 3.67676 19.4876 3.75168 19.6888 3.89111L36.3138 15.4536C36.5165 15.5965 36.6677 15.7982 36.7457 16.0297C36.8238 16.2613 36.8246 16.5109 36.7483 16.743C36.6719 16.9751 36.5221 17.1778 36.3204 17.3221C36.1187 17.4663 35.8753 17.5449 35.625 17.5464Z" fill="#0084AD"/>
<path d="M5.9375 10.6089C5.62256 10.6089 5.32051 10.4871 5.09781 10.2702C4.87511 10.0534 4.75 9.75929 4.75 9.45264V4.82764C4.75 4.52098 4.87511 4.22688 5.09781 4.01004C5.32051 3.79321 5.62256 3.67139 5.9375 3.67139H10.6875C11.0024 3.67139 11.3045 3.79321 11.5272 4.01004C11.7499 4.22688 11.875 4.52098 11.875 4.82764C11.875 5.13429 11.7499 5.42839 11.5272 5.64523C11.3045 5.86207 11.0024 5.98389 10.6875 5.98389H7.125V9.45264C7.125 9.75929 6.99989 10.0534 6.77719 10.2702C6.55449 10.4871 6.25244 10.6089 5.9375 10.6089Z" fill="#0084AD"/>
<path d="M29.6875 33.7339H23.75C23.4351 33.7339 23.133 33.6121 22.9103 33.3952C22.6876 33.1784 22.5625 32.8843 22.5625 32.5776V24.4839H15.4375V32.5776C15.4375 32.8843 15.3124 33.1784 15.0897 33.3952C14.867 33.6121 14.5649 33.7339 14.25 33.7339H8.3125C7.36767 33.7339 6.46153 33.3684 5.79343 32.7179C5.12533 32.0674 4.75 31.1851 4.75 30.2651V18.7026C4.75 18.396 4.87511 18.1019 5.09781 17.885C5.32051 17.6682 5.62256 17.5464 5.9375 17.5464C6.25244 17.5464 6.55449 17.6682 6.77719 17.885C6.99989 18.1019 7.125 18.396 7.125 18.7026V30.2651C7.125 30.5718 7.25011 30.8659 7.47281 31.0827C7.69551 31.2996 7.99756 31.4214 8.3125 31.4214H13.0625V23.3276C13.0625 23.021 13.1876 22.7269 13.4103 22.51C13.633 22.2932 13.9351 22.1714 14.25 22.1714H23.75C24.0649 22.1714 24.367 22.2932 24.5897 22.51C24.8124 22.7269 24.9375 23.021 24.9375 23.3276V31.4214H29.6875C30.0024 31.4214 30.3045 31.2996 30.5272 31.0827C30.7499 30.8659 30.875 30.5718 30.875 30.2651V18.7026C30.875 18.396 31.0001 18.1019 31.2228 17.885C31.4455 17.6682 31.7476 17.5464 32.0625 17.5464C32.3774 17.5464 32.6795 17.6682 32.9022 17.885C33.1249 18.1019 33.25 18.396 33.25 18.7026V30.2651C33.25 31.1851 32.8747 32.0674 32.2066 32.7179C31.5385 33.3684 30.6323 33.7339 29.6875 33.7339Z" fill="#0084AD"/>
</svg>
