<svg width="25" height="19" viewBox="0 0 25 19" fill="none" xmlns="http://www.w3.org/2000/svg">
<path id="Fill 2" fill-rule="evenodd" clip-rule="evenodd" d="M21.875 0H3.125C2.26237 0 1.52588 0.305172 0.915528 0.915528C0.305173 1.52588 0 2.26237 0 3.125V15.625C0 16.4876 0.305173 17.2241 0.915528 17.8345C1.52588 18.4448 2.26237 18.75 3.125 18.75H21.875C22.7376 18.75 23.4741 18.4448 24.0845 17.8345C24.6948 17.2241 25 16.4876 25 15.625V3.125C25 2.26237 24.6948 1.52588 24.0845 0.915528C23.4741 0.305172 22.7376 0 21.875 0ZM22.6562 1.5625L12.5 9.375L2.34375 1.5625H22.6562ZM1.5625 15.625V3.125L8.59375 8.59375L1.63574 16.0645C1.61947 15.9993 1.60319 15.9302 1.58691 15.8569C1.57064 15.7837 1.5625 15.7064 1.5625 15.625ZM2.7832 17.1387L9.83887 9.64356L12.5 11.6455L15.0635 9.61914L22.2168 17.1387C22.1842 17.1549 21.1589 17.1631 19.1406 17.1631C17.1224 17.1631 14.9089 17.1631 12.5 17.1631C10.0911 17.1631 7.87762 17.1631 5.85938 17.1631C3.84113 17.1631 2.81576 17.1549 2.7832 17.1387ZM23.4375 15.625C23.4375 15.7064 23.4294 15.7837 23.4131 15.8569C23.3968 15.9302 23.3805 15.9993 23.3643 16.0645L16.4062 8.59375L23.4375 3.125V15.625Z" fill="#0084AD"/>
</svg>
