<svg width="22" height="27" viewBox="0 0 22 27" fill="none" xmlns="http://www.w3.org/2000/svg">
<path fill-rule="evenodd" clip-rule="evenodd" d="M21.3852 11.3973H5.78648V7.12023C5.78648 5.63499 6.29495 4.38875 7.3167 3.36701C8.33844 2.34526 9.58468 1.83679 11.0699 1.83679C12.5552 1.83679 13.8014 2.34526 14.8231 3.36701C15.8449 4.38875 16.3534 5.63499 16.3534 7.12023V7.87501H17.8629V7.12023C17.8629 5.25036 17.1969 3.6454 15.8708 2.31932C14.5448 0.993246 12.9398 0.32724 11.0699 0.32724C9.20005 0.32724 7.59509 0.993246 6.26901 2.31932C4.94294 3.6454 4.27693 5.25036 4.27693 7.12023V11.3973H0.754639V26.996H21.3852V11.3973ZM8.8057 17.6871C8.8057 17.035 9.01958 16.4885 9.44548 16.0626C9.87137 15.6367 10.418 15.4228 11.07 15.4228C11.7221 15.4228 12.2687 15.6367 12.6946 16.0626C13.1205 16.4885 13.3344 17.035 13.3344 17.6871C13.3344 18.7444 12.8186 19.4696 11.8248 19.8203V21.9642H10.3153V19.8203C9.32142 19.4696 8.8057 18.7444 8.8057 17.6871ZM11.07 18.4419C10.538 18.4419 10.3152 18.2191 10.3152 17.6871C10.3152 17.1551 10.538 16.9323 11.07 16.9323C11.602 16.9323 11.8248 17.1552 11.8248 17.6871C11.8248 18.2191 11.602 18.4419 11.07 18.4419ZM19.8757 12.9069V25.4865H2.2642V12.9069H19.8757Z" fill="#0084AD"/>
</svg>
