<svg width="24" height="24" viewBox="0 0 24 24" fill="none" xmlns="http://www.w3.org/2000/svg">
<path d="M21.2603 22.9999H2.76176C1.79279 22.9999 1 22.2079 1 21.2399V16.1249C1 15.8499 1 15.7069 1.13213 15.4429C1.55055 14.4749 2.78378 13.6609 4.71071 12.9679C6.08709 15.5859 8.83984 17.3679 12 17.3679C15.1602 17.3679 17.9239 15.5859 19.2893 12.9679C21.2162 13.6499 22.4605 14.4859 22.8679 15.4429C23 15.5749 23 15.8609 23 16.1249V21.2399C23 22.2079 22.2072 22.9999 21.2382 22.9999H21.2603Z" stroke="#0084AD" stroke-width="1.5" stroke-linecap="round" stroke-linejoin="round"/>
<path d="M12.011 13.65C8.98297 13.65 6.50549 11.175 6.50549 8.15V6.5C6.50549 3.475 8.98297 1 12.011 1C15.039 1 17.5165 3.475 17.5165 6.5V8.15C17.5165 11.175 15.039 13.65 12.011 13.65Z" stroke="#0084AD" stroke-width="1.5" stroke-linecap="round" stroke-linejoin="round"/>
</svg>
